<?xml version="1.0" encoding="UTF-8"?>
<svg id="Layer_1" data-name="Layer 1" xmlns="http://www.w3.org/2000/svg" viewBox="0 0 195.51 41.7">
  <defs>
    <style>
      .cls-1 {
        fill: #000;
        stroke-width: 0px;
      }
    </style>
  </defs>
  <g>
    <path class="cls-1" d="M0,41.62c1.35,0,2.48-.38,3.39-1.13.91-.75,1.64-1.68,2.2-2.79s.94-2.32,1.16-3.63c.22-1.31.33-2.5.33-3.57,0,1.07.12,2.25.36,3.54.24,1.29.63,2.5,1.19,3.63.55,1.13,1.28,2.07,2.17,2.82.89.75,2.01,1.13,3.36,1.13H0ZM14.63,0c2.02,4.16,4.08,8.29,6.18,12.37,2.1,4.08,4.1,8.23,6.01,12.43-.52,1.43-1.05,2.84-1.61,4.25-.56,1.41-1.11,2.8-1.66,4.19h-1.43c-.52-.99-1.24-2.49-2.17-4.49-.93-2-1.98-4.22-3.15-6.66-1.17-2.44-2.42-4.94-3.75-7.52-1.33-2.58-2.68-4.94-4.04-7.08-1.37-2.14-2.69-3.9-3.95-5.29C3.78.81,2.62.08,1.55,0h13.08ZM36.27,0h12.25c-.91,0-1.61.24-2.08.71-.48.48-.82,1.06-1.04,1.75-.22.69-.35,1.44-.39,2.23-.04.79-.06,1.51-.06,2.14v29.31c0,.59.04,1.22.12,1.87.08.65.25,1.25.51,1.78s.61.97,1.07,1.31c.46.34,1.08.51,1.87.51h-15.82c.95,0,1.67-.23,2.14-.68s.82-1.03,1.04-1.72c.22-.69.34-1.44.36-2.23.02-.79.03-1.53.03-2.2V0Z"/>
    <path class="cls-1" d="M59.04,31.63c-.32,1.39-.48,2.73-.48,4.04,0,.56.04,1.17.12,1.84.08.67.25,1.32.51,1.93.26.62.6,1.13,1.04,1.55.44.42,1.01.62,1.72.62h-11.95c1.19-.24,2.25-.69,3.18-1.37.93-.67,1.76-1.48,2.5-2.41.73-.93,1.38-1.94,1.93-3.03.55-1.09,1.03-2.15,1.43-3.18ZM66.42,10.58c.63-1.78,1.27-3.55,1.9-5.29.63-1.74,1.29-3.51,1.96-5.29h1.25c2.26,5.51,4.37,11.05,6.33,16.62,1.96,5.57,4.01,11.13,6.15,16.68.28.71.59,1.56.95,2.53.36.97.79,1.88,1.31,2.74.51.85,1.13,1.58,1.84,2.17.71.59,1.55.89,2.5.89h-16.65c.67.16,1.26.06,1.75-.3.5-.36.74-.89.74-1.61,0-.44-.21-1.38-.62-2.82-.42-1.45-.95-3.14-1.61-5.08-.65-1.94-1.38-4.03-2.17-6.27-.79-2.24-1.57-4.36-2.32-6.36-.75-2-1.43-3.79-2.02-5.35-.59-1.57-1.03-2.65-1.31-3.24Z"/>
    <path class="cls-1" d="M92.1,0h15.82c-.83,0-1.49.2-1.96.59-.48.4-.83.9-1.07,1.52-.24.62-.39,1.28-.45,1.99-.06.71-.09,1.39-.09,2.02v29.97c0,.63.04,1.28.12,1.93s.24,1.25.48,1.78c.24.54.59.97,1.07,1.31.48.34,1.11.51,1.9.51h-15.82c.83,0,1.49-.19,1.96-.57.48-.38.83-.85,1.07-1.43.24-.57.39-1.21.45-1.9.06-.69.09-1.36.09-1.99V6.12c0-.63-.03-1.31-.09-2.02-.06-.71-.21-1.38-.45-1.99-.24-.61-.59-1.12-1.07-1.52-.48-.4-1.13-.59-1.96-.59ZM122.25,31.1c-.44,1.78-.84,3.54-1.22,5.26-.38,1.72-.76,3.48-1.16,5.26h-8.21c1.35,0,2.59-.34,3.72-1.01s2.13-1.54,3-2.59c.87-1.05,1.62-2.19,2.26-3.42.63-1.23,1.17-2.4,1.61-3.51Z"/>
    <path class="cls-1" d="M122.79,0h12.25v41.62h-12.25c.83,0,1.49-.2,1.96-.59.48-.4.83-.9,1.07-1.52.24-.61.39-1.28.45-1.99.06-.71.09-1.39.09-2.02V6.84c0-.63-.02-1.35-.06-2.14-.04-.79-.17-1.54-.39-2.23-.22-.69-.58-1.28-1.07-1.75-.5-.48-1.18-.71-2.05-.71ZM138.36,20.63c1.11-.04,1.97-.46,2.59-1.25.61-.79,1.07-1.72,1.37-2.79.3-1.07.48-2.18.54-3.33.06-1.15.09-2.12.09-2.91,0-.71-.04-1.61-.12-2.71-.08-1.09-.26-2.18-.54-3.27-.28-1.09-.68-2.05-1.22-2.88-.54-.83-1.24-1.33-2.11-1.49h.71c1.58,0,3.13.21,4.64.62,1.51.42,2.83,1.05,3.98,1.9,1.15.85,2.08,1.92,2.79,3.21.71,1.29,1.07,2.82,1.07,4.61,0,1.51-.24,2.83-.71,3.98-.48,1.15-1.14,2.14-1.99,2.97-.85.83-1.86,1.51-3.03,2.02-1.17.52-2.45.89-3.84,1.13,1.62,0,3.18.22,4.67.65,1.49.44,2.8,1.1,3.95,1.99,1.15.89,2.06,2,2.74,3.33.67,1.33,1.01,2.88,1.01,4.67s-.38,3.45-1.13,4.76c-.75,1.31-1.75,2.4-2.97,3.27-1.23.87-2.63,1.51-4.19,1.9-1.57.4-3.16.59-4.79.59h-2.5c1.31,0,2.38-.36,3.21-1.07.83-.71,1.48-1.61,1.93-2.68.46-1.07.76-2.21.92-3.42.16-1.21.24-2.33.24-3.36,0-1.19-.1-2.42-.3-3.69-.2-1.27-.56-2.42-1.1-3.45-.54-1.03-1.28-1.86-2.23-2.5-.95-.63-2.18-.91-3.69-.83Z"/>
    <path class="cls-1" d="M163.93,31.63c-.32,1.39-.48,2.73-.48,4.04,0,.56.04,1.17.12,1.84.08.67.25,1.32.51,1.93.26.62.6,1.13,1.04,1.55.44.42,1.01.62,1.72.62h-11.95c1.19-.24,2.25-.69,3.18-1.37.93-.67,1.76-1.48,2.5-2.41.73-.93,1.38-1.94,1.93-3.03.55-1.09,1.03-2.15,1.43-3.18ZM171.31,10.58c.63-1.78,1.27-3.55,1.9-5.29.63-1.74,1.29-3.51,1.96-5.29h1.25c2.26,5.51,4.37,11.05,6.33,16.62,1.96,5.57,4.01,11.13,6.15,16.68.28.71.59,1.56.95,2.53.36.97.79,1.88,1.31,2.74.51.85,1.13,1.58,1.84,2.17.71.59,1.55.89,2.5.89h-16.65c.67.16,1.26.06,1.75-.3.5-.36.74-.89.74-1.61,0-.44-.21-1.38-.62-2.82-.42-1.45-.95-3.14-1.61-5.08-.65-1.94-1.38-4.03-2.17-6.27-.79-2.24-1.57-4.36-2.32-6.36-.75-2-1.43-3.79-2.02-5.35-.59-1.57-1.03-2.65-1.31-3.24Z"/>
  </g>
  <path class="cls-1" d="M75.22,26.55c-2.61.68-5.25.69-7.87,0,2.61-.69,5.25-.68,7.87,0h0Z"/>
  <path class="cls-1" d="M180.03,26.55c-2.61.68-5.25.69-7.87,0,2.61-.69,5.25-.68,7.87,0h0Z"/>
</svg>